<svg width="738" height="2189" viewBox="0 0 738 2189" fill="none" xmlns="http://www.w3.org/2000/svg">
<rect width="738" height="2189" fill="#E5E5E5"/>
<path id="Vector" d="M361.757 475.989L361.596 478.14L404.737 481.375L404.899 479.225L361.757 475.989Z" fill="#E6E6E6"/>
<path id="Vector_2" d="M467.45 485.696L467.296 487.847L512.595 491.082L512.749 488.932L467.45 485.696Z" fill="#E6E6E6"/>
<path id="Vector_3" d="M355.205 389.703H335.791V376.76L387.561 367.054L390.797 360.582L593.562 365.975V384.31L553.117 399.074L526.693 398.331C526.693 398.331 486.787 431.766 439.331 428.53C391.875 425.295 355.205 389.703 355.205 389.703Z" fill="#E6E6E6"/>
<path id="Vector_4" d="M531.546 377.3L520.222 385.389L488.502 384.623C488.502 384.634 488.491 384.623 488.491 384.623H488.437L486.021 384.569H486.01L484.004 384.515L477.673 384.364L477.145 384.353L471.547 384.224L471.342 384.213L464.386 384.051L463.933 384.04L458.788 383.911L457.958 383.9L451.918 383.749L449.976 383.706L439.115 383.447L436.376 383.383L407.514 382.692C407.514 382.692 386.946 383.717 385.976 377.742C385.954 377.595 385.943 377.448 385.943 377.3C385.943 373.902 389.524 373.18 392.911 373.266C394.923 373.34 396.924 373.607 398.886 374.064L407.169 374.269L412.335 374.388L428.546 374.787L442.405 375.121L447.312 375.25L454.334 375.423L457.116 375.488L467.449 375.736L472.28 375.854L482.483 376.102L531.546 377.3Z" fill="#CCCCCC"/>
<path id="Vector_5" d="M471.148 382.692C472.339 382.692 473.305 381.727 473.305 380.535C473.305 379.344 472.339 378.378 471.148 378.378C469.957 378.378 468.991 379.344 468.991 380.535C468.991 381.727 469.957 382.692 471.148 382.692Z" fill="#3F3D56"/>
<path id="Vector_6" d="M472.227 375.143C483.544 375.143 492.719 374.177 492.719 372.985C492.719 371.794 483.544 370.828 472.227 370.828C460.909 370.828 451.734 371.794 451.734 372.985C451.734 374.177 460.909 375.143 472.227 375.143Z" fill="#CCCCCC"/>
<path id="Vector_7" d="M459.401 345.571L477.284 349.929L475.24 358.312L449.586 352.059L449.734 351.449C450.237 349.387 451.538 347.61 453.351 346.508C455.163 345.405 457.34 345.068 459.401 345.571Z" fill="#3F3D56"/>
<path id="Vector_8" d="M452.648 352.335L462.247 353.778L462.2 354.088C462.043 355.137 461.475 356.081 460.622 356.711C459.768 357.342 458.7 357.607 457.65 357.45L455.963 357.196C454.913 357.038 453.97 356.47 453.34 355.617C452.709 354.764 452.444 353.695 452.601 352.646L452.648 352.335L452.648 352.335Z" fill="#3F3D56"/>
<path id="Vector_9" opacity="0.2" d="M475.24 356.155L461.829 352.886C461.427 353.704 460.776 354.374 459.969 354.798C459.162 355.222 458.242 355.379 457.34 355.246L456.273 355.086C455.224 354.926 454.271 354.384 453.598 353.563C452.924 352.743 452.578 351.703 452.625 350.643L450.341 350.086C450.01 350.71 449.756 351.373 449.586 352.059L452.625 352.8C452.578 353.86 452.924 354.9 453.598 355.721C454.271 356.541 455.224 357.083 456.273 357.243L457.34 357.403C458.242 357.536 459.162 357.379 459.969 356.955C460.776 356.531 461.427 355.861 461.829 355.043L475.24 358.312L477.284 349.929L476.787 349.808L475.24 356.155Z" fill="black"/>
<path id="Vector_10" d="M472.979 374.064C471.909 374.064 470.851 373.846 469.869 373.424C468.887 373.002 468.001 372.384 467.265 371.609C466.529 370.833 465.959 369.916 465.589 368.913C465.219 367.909 465.057 366.841 465.113 365.774L466.295 343.326L480.855 342.786V366.188C480.855 367.222 480.651 368.246 480.255 369.202C479.86 370.157 479.279 371.026 478.548 371.757C477.817 372.488 476.948 373.069 475.993 373.464C475.037 373.86 474.013 374.064 472.979 374.064Z" fill="#3F3D56"/>
<path id="Vector_11" d="M479.776 343.326H466.664C468.937 339.876 467.519 336.341 464.336 332.766C464.154 332.559 464.035 332.304 463.994 332.031C463.953 331.758 463.991 331.478 464.105 331.227C464.219 330.975 464.402 330.762 464.635 330.612C464.867 330.463 465.137 330.383 465.413 330.383H470.41C475.583 330.383 479.776 335.212 479.776 341.169V343.326Z" fill="#3F3D56"/>
<path id="Vector_12" opacity="0.2" d="M468.65 332.766C468.468 332.559 468.349 332.304 468.308 332.031C468.267 331.758 468.305 331.478 468.419 331.227C468.533 330.975 468.717 330.762 468.949 330.612C469.181 330.462 469.451 330.383 469.727 330.383H465.413C465.137 330.383 464.867 330.462 464.635 330.612C464.402 330.762 464.219 330.975 464.105 331.227C463.991 331.478 463.953 331.758 463.994 332.031C464.035 332.304 464.154 332.559 464.336 332.766C467.519 336.341 468.937 339.876 466.664 343.326H470.978C473.252 339.876 471.833 336.341 468.65 332.766Z" fill="black"/>
<path id="Vector_13" d="M406.421 356.039L423.008 361.901C423.008 361.901 462.464 365.049 457.344 375.085C452.225 385.121 418.456 378.637 418.456 378.637L402.463 367.534L406.421 356.039Z" fill="#FFB8B8"/>
<path id="Vector_14" d="M431.242 370.828C430.138 370.83 429.077 371.256 428.278 372.018C427.48 372.78 427.004 373.819 426.95 374.922C426.709 374.7 426.435 374.517 426.139 374.377C426.954 373.823 427.554 373.007 427.843 372.065C428.131 371.123 428.089 370.111 427.723 369.196C427.358 368.281 426.692 367.518 425.834 367.033C424.976 366.548 423.979 366.371 423.006 366.53C422.034 366.689 421.145 367.175 420.487 367.908C419.828 368.641 419.439 369.576 419.385 370.56C419.33 371.544 419.613 372.517 420.186 373.318C420.759 374.119 421.589 374.701 422.538 374.966C422.169 375.318 421.889 375.752 421.721 376.233C421.552 376.713 421.499 377.227 421.566 377.732C421.634 378.237 421.82 378.719 422.109 379.138C422.398 379.558 422.782 379.903 423.23 380.145C423.678 380.388 424.177 380.521 424.687 380.534C425.196 380.547 425.701 380.44 426.161 380.22C426.62 380.001 427.022 379.676 427.332 379.272C427.643 378.868 427.853 378.397 427.946 377.896C428.411 378.452 429.009 378.882 429.684 379.145C430.359 379.409 431.09 379.498 431.808 379.404C432.527 379.31 433.21 379.036 433.795 378.608C434.379 378.18 434.846 377.611 435.153 376.954C435.459 376.297 435.595 375.574 435.547 374.851C435.499 374.128 435.27 373.428 434.88 372.817C434.49 372.207 433.952 371.704 433.316 371.356C432.68 371.009 431.967 370.827 431.242 370.828Z" fill="white"/>
<path id="Vector_15" d="M438.792 372.985C437.688 372.987 436.627 373.413 435.828 374.175C435.029 374.937 434.554 375.976 434.5 377.079C434.259 376.857 433.985 376.674 433.689 376.534C434.503 375.98 435.104 375.165 435.392 374.222C435.68 373.28 435.638 372.268 435.273 371.353C434.908 370.438 434.241 369.675 433.384 369.19C432.526 368.705 431.528 368.528 430.556 368.687C429.584 368.846 428.695 369.332 428.036 370.065C427.378 370.798 426.989 371.733 426.935 372.717C426.88 373.701 427.163 374.674 427.736 375.475C428.309 376.276 429.139 376.858 430.088 377.124C429.719 377.475 429.439 377.909 429.27 378.39C429.101 378.87 429.049 379.384 429.116 379.889C429.184 380.394 429.37 380.876 429.659 381.295C429.948 381.715 430.332 382.06 430.78 382.302C431.228 382.545 431.727 382.678 432.236 382.691C432.746 382.704 433.251 382.597 433.71 382.378C434.17 382.158 434.572 381.833 434.882 381.429C435.192 381.025 435.403 380.554 435.496 380.053C435.961 380.609 436.558 381.039 437.234 381.302C437.909 381.566 438.639 381.655 439.358 381.561C440.077 381.467 440.76 381.193 441.344 380.765C441.929 380.337 442.396 379.768 442.702 379.111C443.009 378.454 443.144 377.731 443.097 377.008C443.049 376.285 442.819 375.585 442.429 374.974C442.039 374.364 441.502 373.861 440.866 373.513C440.23 373.166 439.517 372.984 438.792 372.985Z" fill="white"/>
<path id="Vector_16" d="M418.494 355.567L403.481 380.363L371.912 359.169L335.651 334.838L313.789 277.438L291.56 236.734L319.419 228.526C319.419 228.526 329.007 228.893 341.4 251.639C353.781 274.396 364.815 313.784 364.815 313.784L379.623 325.314L418.494 355.567Z" fill="#6C63FF"/>
<path id="hand2" opacity="0.2" d="M418.494 355.567L403.481 380.363L371.912 359.169L335.651 334.838L313.789 277.438L291.56 236.734L319.419 228.526C319.419 228.526 329.007 228.893 341.4 251.639C353.781 274.396 364.815 313.784 364.815 313.784L379.623 325.314L418.494 355.567Z" fill="black"/>
<path id="Vector_17" d="M488.437 384.623L449.976 383.706L446.924 380.244L444.767 377.796L442.405 375.121L439.784 372.155L444.249 365.231L446.374 361.93L454.981 367.582L461.085 371.583C461.085 371.583 466.198 373.287 472.281 375.854C477.932 378.249 484.436 381.398 488.437 384.623Z" fill="#FFB8B8"/>
<path id="Vector_18" d="M339.579 187.013C354.144 187.013 365.951 175.206 365.951 160.641C365.951 146.075 354.144 134.268 339.579 134.268C325.014 134.268 313.206 146.075 313.206 160.641C313.206 175.206 325.014 187.013 339.579 187.013Z" fill="#FFB8B8"/>
<path id="Vector_19" d="M319.14 167.893L316.503 206.133L349.469 210.089C349.469 210.089 349.469 178.442 352.106 174.486C354.743 170.53 319.14 167.893 319.14 167.893Z" fill="#FFB8B8"/>
<path id="Vector_20" d="M392.324 217.342L349.623 199.259C349.623 199.259 329.225 183.519 317.26 195.156L311.888 202.837C311.888 202.837 279.168 220.427 279.168 234.932L282.878 308.327C282.878 308.327 272.329 349.205 288.152 351.842L373.863 359.754C373.863 359.754 385.731 345.249 375.182 326.788L379.138 283.273L392.324 217.342Z" fill="#6C63FF"/>
<path id="hand1" d="M363.314 218.66L392.324 217.342C392.324 217.342 394.45 219.585 401.043 244.639C407.636 269.693 416.059 310.965 416.059 310.965L458.206 364.357L437.713 384.849L382.708 324.451L375.182 263.494L363.314 218.66Z" fill="#6C63FF"/>
<g id="Group 1">
<path id="Vector_21" d="M333.095 694.39C424.827 694.39 499.19 682.801 499.19 668.505C499.19 654.209 424.827 642.62 333.095 642.62C241.363 642.62 167 654.209 167 668.505C167 682.801 241.363 694.39 333.095 694.39Z" fill="#E6E6E6"/>
<path id="Vector_22" d="M589.248 616.196L553.117 658.022L552.448 658.798L340.645 626.442V384.849H588.709L589.248 616.196Z" fill="#3F3D56"/>
<path id="Vector_23" d="M552.643 452.26L340.171 439.317L340.04 441.47L437.178 447.387L438.83 641.615L440.987 641.596L439.337 447.519L552.512 454.413L552.643 452.26Z" fill="#E6E6E6"/>
<path id="Vector_24" opacity="0.2" d="M589.248 616.196L553.117 658.022V384.849H588.709L589.248 616.196Z" fill="black"/>
<path id="Vector_25" d="M377.819 357.117L283.014 348.775C283.014 348.775 273.647 408.543 274.966 432.279C276.284 456.014 277.603 492.936 277.603 492.936L267.054 653.809L307.932 648.534L313.206 515.353L330.348 442.828L350.128 535.132L363.314 653.809L398.917 649.853L387.05 506.122C387.05 506.122 397.599 376.896 377.819 357.117Z" fill="#2F2E41"/>
<path id="Vector_26" d="M391.005 643.26L402.873 647.216C402.873 647.216 427.927 640.623 421.334 657.765C414.741 674.907 396.28 672.27 396.28 672.27C396.28 672.27 373.863 689.412 364.633 676.226L369.907 648.534L391.005 643.26Z" fill="#2F2E41"/>
<path id="Vector_27" d="M294.745 643.26L306.613 647.216C306.613 647.216 331.667 640.623 325.074 657.765C318.481 674.907 300.02 672.27 300.02 672.27C300.02 672.27 277.603 689.412 268.373 676.226L273.647 648.534L294.745 643.26Z" fill="#2F2E41"/>
</g>
<path id="Vector_28" d="M319.14 183.717C319.14 183.717 291.449 163.937 305.954 140.202C316.016 123.736 336.868 125.039 348.696 127.382C351.882 127.97 354.878 129.324 357.425 131.328C359.971 133.332 361.993 135.924 363.314 138.883C365.292 143.498 365.292 148.114 357.38 148.114C341.557 148.114 349.468 159.981 349.468 159.981C349.468 159.981 338.919 162.619 341.557 171.849C344.194 181.079 319.14 183.717 319.14 183.717Z" fill="#2F2E41"/>
<path id="Vector_29" d="M487.326 384.849C489.113 384.849 490.562 383.401 490.562 381.614C490.562 379.827 489.113 378.378 487.326 378.378C485.539 378.378 484.091 379.827 484.091 381.614C484.091 383.401 485.539 384.849 487.326 384.849Z" fill="white"/>
<path id="Vector_30" d="M484.091 379.457C484.092 378.813 483.948 378.177 483.67 377.596C483.392 377.015 482.986 376.505 482.484 376.102C481.717 375.484 480.762 375.145 479.776 375.143C479.722 375.143 479.679 375.153 479.625 375.153C479.408 374.289 478.927 373.514 478.249 372.936C477.571 372.357 476.73 372.003 475.843 371.924C474.955 371.845 474.065 372.043 473.295 372.492C472.526 372.941 471.915 373.619 471.547 374.431C470.863 374.072 470.073 373.972 469.322 374.151C468.57 374.329 467.909 374.773 467.459 375.401C464.284 374.997 461.174 374.185 458.206 372.985C457.396 372.985 456.603 373.213 455.917 373.645C455.232 374.076 454.683 374.693 454.334 375.423C454.04 376.005 453.888 376.648 453.891 377.3C453.895 378.076 454.111 378.837 454.517 379.5C453.747 379.608 453.041 379.99 452.53 380.577C452.018 381.163 451.736 381.914 451.734 382.692C451.734 383.053 451.796 383.41 451.918 383.749L457.958 383.9C458.041 383.703 458.103 383.497 458.141 383.285C458.335 383.515 458.552 383.725 458.788 383.911L463.933 384.04L464.224 383.814C464.272 383.897 464.326 383.977 464.386 384.051L471.342 384.213C471.385 384.165 471.425 384.115 471.461 384.062C471.485 384.118 471.514 384.172 471.547 384.224L477.145 384.353C477.369 383.984 477.516 383.573 477.576 383.145C477.606 383.167 477.639 383.185 477.673 383.199C477.639 383.388 477.621 383.579 477.619 383.771C477.621 383.97 477.639 384.168 477.673 384.364L484.004 384.515C484.061 384.271 484.09 384.021 484.091 383.771C484.086 383.051 483.843 382.353 483.4 381.786C483.85 381.093 484.09 380.284 484.091 379.457ZM472.539 379.37C472.354 379.595 472.14 379.795 471.903 379.964C471.968 380.125 472 380.298 472.054 380.46C472.326 380.17 472.652 379.935 473.014 379.769C472.846 379.648 472.688 379.515 472.539 379.37V379.37Z" fill="white"/>
<path id="Vector_31" d="M516.447 385.928C518.234 385.928 519.682 384.479 519.682 382.692C519.682 380.905 518.234 379.457 516.447 379.457C514.66 379.457 513.211 380.905 513.211 382.692C513.211 384.479 514.66 385.928 516.447 385.928Z" fill="white"/>
<path id="Vector_32" d="M513.211 380.535C513.213 379.891 513.069 379.255 512.791 378.675C512.512 378.094 512.107 377.583 511.604 377.181C510.837 376.563 509.882 376.224 508.897 376.221C508.843 376.221 508.8 376.232 508.746 376.232C508.528 375.368 508.047 374.593 507.37 374.014C506.692 373.435 505.851 373.082 504.963 373.003C504.076 372.923 503.186 373.122 502.416 373.571C501.646 374.02 501.035 374.697 500.668 375.509C499.984 375.15 499.194 375.051 498.442 375.229C497.691 375.407 497.029 375.852 496.58 376.48C493.405 376.075 490.294 375.263 487.326 374.064C486.517 374.063 485.723 374.292 485.038 374.723C484.353 375.154 483.804 375.771 483.454 376.502C483.16 377.083 483.009 377.726 483.012 378.378C483.016 379.155 483.232 379.916 483.638 380.578C482.867 380.686 482.161 381.069 481.65 381.655C481.139 382.242 480.857 382.993 480.855 383.771C480.854 384.131 480.916 384.489 481.038 384.828L487.078 384.979C487.162 384.781 487.223 384.575 487.261 384.364C487.455 384.594 487.672 384.804 487.909 384.99L493.053 385.119L493.344 384.893C493.392 384.976 493.446 385.055 493.506 385.13L500.463 385.292C500.506 385.244 500.545 385.193 500.581 385.141C500.606 385.197 500.635 385.251 500.668 385.302L506.265 385.432C506.49 385.063 506.636 384.652 506.697 384.224C506.727 384.246 506.759 384.264 506.794 384.278C506.76 384.466 506.742 384.658 506.74 384.849C506.741 385.048 506.759 385.247 506.794 385.443L513.125 385.594C513.181 385.35 513.21 385.1 513.211 384.849C513.207 384.13 512.964 383.432 512.521 382.865C512.971 382.171 513.211 381.362 513.211 380.535ZM501.66 380.449C501.475 380.674 501.261 380.873 501.024 381.042C501.088 381.204 501.121 381.376 501.175 381.538C501.447 381.248 501.773 381.014 502.135 380.848C501.967 380.727 501.808 380.593 501.66 380.449H501.66Z" fill="white"/>
<path id="Vector_33" d="M469.8 383.771C471.14 383.771 472.227 382.684 472.227 381.344C472.227 380.004 471.14 378.917 469.8 378.917C468.46 378.917 467.373 380.004 467.373 381.344C467.373 382.684 468.46 383.771 469.8 383.771Z" fill="white"/>
<path id="Vector_34" d="M467.373 379.726C467.374 379.243 467.266 378.766 467.058 378.331C466.849 377.895 466.545 377.512 466.168 377.211C465.593 376.747 464.876 376.493 464.138 376.491C464.097 376.491 464.065 376.499 464.024 376.499C463.861 375.851 463.5 375.269 462.992 374.835C462.484 374.401 461.853 374.136 461.187 374.077C460.522 374.017 459.854 374.166 459.277 374.503C458.699 374.84 458.241 375.348 457.966 375.957C457.453 375.688 456.86 375.613 456.296 375.747C455.733 375.881 455.237 376.214 454.9 376.685C452.518 376.381 450.186 375.772 447.959 374.873C447.352 374.872 446.757 375.044 446.243 375.367C445.729 375.691 445.317 376.153 445.055 376.701C444.835 377.137 444.721 377.62 444.724 378.108C444.727 378.691 444.889 379.262 445.193 379.759C444.615 379.84 444.086 380.126 443.702 380.566C443.319 381.006 443.107 381.57 443.106 382.153C443.106 382.423 443.152 382.691 443.243 382.946L447.773 383.059C447.836 382.911 447.882 382.756 447.911 382.598C448.056 382.77 448.219 382.928 448.396 383.067L452.255 383.164L452.473 382.994C452.509 383.057 452.549 383.116 452.594 383.172L457.812 383.294C457.844 383.258 457.874 383.22 457.901 383.18C457.919 383.222 457.941 383.263 457.966 383.302L462.164 383.399C462.332 383.122 462.442 382.814 462.487 382.493C462.51 382.509 462.534 382.523 462.56 382.533C462.535 382.675 462.521 382.818 462.52 382.962C462.521 383.111 462.534 383.26 462.56 383.407L467.308 383.52C467.351 383.337 467.373 383.15 467.373 382.962C467.37 382.422 467.188 381.899 466.855 381.474C467.193 380.953 467.373 380.346 467.373 379.726ZM458.71 379.662C458.571 379.83 458.411 379.98 458.233 380.107C458.281 380.228 458.305 380.357 458.346 380.479C458.55 380.261 458.794 380.085 459.066 379.961C458.94 379.87 458.821 379.77 458.71 379.662Z" fill="white"/>
<path id="Vector_35" d="M435.287 383.771C436.627 383.771 437.713 382.684 437.713 381.344C437.713 380.004 436.627 378.917 435.287 378.917C433.946 378.917 432.86 380.004 432.86 381.344C432.86 382.684 433.946 383.771 435.287 383.771Z" fill="white"/>
<path id="Vector_36" d="M432.86 379.726C432.861 379.243 432.753 378.766 432.545 378.331C432.336 377.895 432.032 377.512 431.655 377.211C431.079 376.747 430.363 376.493 429.624 376.491C429.584 376.491 429.551 376.499 429.511 376.499C429.348 375.851 428.987 375.269 428.479 374.835C427.97 374.401 427.34 374.136 426.674 374.077C426.008 374.017 425.341 374.166 424.763 374.503C424.186 374.84 423.728 375.348 423.452 375.957C422.94 375.688 422.347 375.613 421.783 375.747C421.22 375.88 420.724 376.214 420.387 376.685C418.005 376.381 415.672 375.772 413.446 374.873C412.839 374.872 412.244 375.044 411.73 375.367C411.216 375.691 410.804 376.153 410.542 376.701C410.322 377.137 410.208 377.62 410.211 378.108C410.213 378.691 410.376 379.262 410.68 379.759C410.102 379.84 409.573 380.126 409.189 380.566C408.806 381.006 408.594 381.57 408.593 382.153C408.592 382.423 408.639 382.691 408.73 382.946L413.26 383.059C413.323 382.911 413.369 382.756 413.398 382.598C413.543 382.77 413.706 382.928 413.883 383.067L417.741 383.164L417.96 382.994C417.996 383.057 418.036 383.116 418.081 383.172L423.299 383.294C423.331 383.258 423.361 383.22 423.388 383.18C423.406 383.222 423.428 383.263 423.452 383.302L427.651 383.399C427.819 383.122 427.929 382.814 427.974 382.493C427.997 382.509 428.021 382.523 428.047 382.533C428.021 382.675 428.008 382.818 428.006 382.962C428.008 383.111 428.021 383.26 428.047 383.407L432.795 383.52C432.838 383.337 432.859 383.15 432.86 382.962C432.857 382.422 432.675 381.899 432.342 381.474C432.68 380.953 432.86 380.346 432.86 379.726ZM424.197 379.662C424.058 379.83 423.897 379.98 423.719 380.107C423.768 380.228 423.792 380.357 423.833 380.479C424.037 380.261 424.281 380.085 424.552 379.961C424.427 379.87 424.308 379.77 424.197 379.662Z" fill="white"/>
<path id="Vector_37" d="M548.533 348.653V342.182H543.141V343.26C542.545 343.26 542.062 343.985 542.062 344.878C542.062 345.772 542.545 346.496 543.141 346.496V348.653H538.826V370.224H552.847V348.653H548.533Z" fill="#3F3D56"/>
<g id="Group" opacity="0.5">
<path id="Vector_38" opacity="0.5" d="M433.014 903L199.605 1042.24L346.712 1463.99L580.121 1324.75L433.014 903Z" fill="url(#paint0_linear)"/>
</g>
<path id="Vector_39" d="M370.313 932.79L257.469 1004.43L269.937 1042.47L382.782 970.832L370.313 932.79Z" fill="url(#paint1_linear)"/>
<path id="Vector_40" d="M286.35 1085.98L237.647 1116.9L259.863 1184.68L308.565 1153.76L286.35 1085.98Z" fill="url(#paint2_linear)"/>
<path id="Vector_41" d="M285.377 1089.59L240.24 1118.24L260.829 1181.06L305.966 1152.41L285.377 1089.59Z" fill="#69F0AE"/>
<path id="Vector_42" d="M383.297 1050.85L321.428 1090.13L323.398 1096.14L385.267 1056.86L383.297 1050.85Z" fill="#E0E0E0"/>
<path id="Vector_43" d="M426.542 1034.29L324.386 1099.14L326.355 1105.15L428.511 1040.3L426.542 1034.29Z" fill="#E0E0E0"/>
<path id="Vector_44" d="M422.295 1047.87L327.335 1108.15L329.304 1114.16L424.264 1053.88L422.295 1047.87Z" fill="#E0E0E0"/>
<path id="Vector_45" d="M426.917 1183.93L365.048 1223.21L367.017 1229.22L428.886 1189.94L426.917 1183.93Z" fill="#E0E0E0"/>
<path id="Vector_46" d="M470.159 1167.36L368.003 1232.22L369.973 1238.23L472.129 1173.37L470.159 1167.36Z" fill="#E0E0E0"/>
<path id="Vector_47" d="M465.915 1180.95L370.954 1241.23L372.924 1247.24L467.884 1186.96L465.915 1180.95Z" fill="#E0E0E0"/>
<path id="Vector_48" d="M261.632 1138.08L273.256 1143.34L277.08 1112.2L282.736 1114.36L276.374 1152.84L258.844 1142.15L261.632 1138.08Z" fill="url(#paint3_linear)"/>
<path id="Vector_49" d="M263.114 1137.67L273.221 1142.23L276.544 1115.16L281.46 1117.04L275.929 1150.5L260.686 1141.21L263.114 1137.67Z" fill="white"/>
<path id="Vector_50" d="M510.133 1057.45L469.727 1079.37C462.129 1078.58 446.141 1075.71 430.273 1065.3C412.608 1053.7 392.37 1053.73 375.211 1065.88C335.666 1067.19 313.901 1060.14 302.288 1053.47L305.352 1044.72L264.396 1022.49L162 958.626V1220.4L197.835 1242.62L217.057 1178.45L259.27 1205.62L267.374 1176.96L295.09 1205.58L296.977 1207.79L294.379 1211.54C291.997 1215.05 290.67 1219.68 290.67 1224.51C290.67 1229.33 291.997 1233.97 294.379 1237.47C295.532 1239.16 296.921 1240.51 298.462 1241.44C300.002 1242.36 301.662 1242.84 303.34 1242.84C305.017 1242.84 306.677 1242.36 308.217 1241.44C309.758 1240.51 311.147 1239.16 312.3 1237.47L310.878 1239.56C308.496 1243.06 307.169 1247.7 307.169 1252.52C307.169 1257.34 308.496 1261.98 310.878 1265.48V1265.48C312.031 1267.17 313.42 1268.53 314.96 1269.45C316.501 1270.37 318.161 1270.85 319.838 1270.85C321.516 1270.85 323.175 1270.37 324.716 1269.45C326.256 1268.53 327.646 1267.17 328.798 1265.48L337.008 1253.6L331.371 1261.75C328.989 1265.25 327.662 1269.89 327.662 1274.71C327.662 1279.53 328.989 1284.17 331.371 1287.67V1287.67C332.524 1289.37 333.913 1290.72 335.454 1291.64C336.994 1292.57 338.654 1293.04 340.331 1293.04C342.009 1293.04 343.668 1292.57 345.209 1291.64C346.75 1290.72 348.139 1289.37 349.291 1287.67L357.396 1275.95L353.987 1280.88C352.321 1283.33 351.393 1286.57 351.393 1289.94C351.393 1293.31 352.321 1296.55 353.987 1298.99C354.792 1300.18 355.762 1301.12 356.838 1301.77C357.914 1302.41 359.072 1302.74 360.244 1302.74C361.415 1302.74 362.574 1302.41 363.65 1301.77C364.726 1301.12 365.696 1300.18 366.501 1298.99L371.907 1291.18C381.192 1300.62 388.706 1307.51 392.385 1309.29C407.717 1316.69 407.717 1301.87 407.717 1301.87C428.195 1316.68 438.437 1287.06 438.437 1287.06C464.036 1301.87 464.036 1264.84 464.036 1264.84C470.433 1271.01 475.048 1268.18 478.272 1262.75C482.662 1255.38 483.198 1244.98 480.184 1236.63L504.652 1205.16L515.234 1235.27L557.446 1208.1L576.668 1267.41L604.975 1249.82V990.783L510.133 1057.45Z" fill="url(#paint4_linear)"/>
<path id="Vector_51" d="M503.335 1194.53L458.775 1249.64L424.121 1160.07L503.335 1132.51V1194.53Z" fill="#BE7C5E"/>
<path id="1" d="M290.445 1049.82C290.445 1049.82 304.746 1077.38 389.462 1070.49L438.973 1173.85L472.15 1225.8C477.361 1233.96 477.656 1246.34 472.541 1254.62C469.432 1259.64 464.962 1262.28 458.775 1256.53C458.775 1256.53 458.775 1290.98 434.022 1277.2C434.022 1277.2 424.121 1304.76 404.319 1290.98C404.319 1290.98 404.318 1304.76 389.467 1297.87C374.615 1290.98 295.396 1201.42 295.396 1201.42L260.741 1166.97L290.445 1049.82Z" fill="#FDA57D"/>
<path id="Vector_52" d="M468.676 1084.28C468.676 1084.28 447.282 1084.28 426.128 1070.91C406.891 1058.77 384.491 1060.32 366.741 1076.26C352.275 1089.25 339.741 1110.76 339.976 1146.29C339.976 1146.29 359.228 1173.85 379.581 1118.73H394.432C394.432 1118.73 408.733 1187.64 448.894 1180.73C489.054 1173.83 498.405 1166.95 498.405 1166.95L468.676 1084.28Z" fill="#BE7C5E"/>
<path id="Vector_53" d="M338.699 1220.33L337.092 1218.1C332.75 1212.05 325.711 1212.05 321.369 1218.1L309.862 1234.11C305.521 1240.15 305.521 1249.95 309.862 1255.99L311.469 1258.23C315.811 1264.27 322.85 1264.27 327.192 1258.23L338.699 1242.22C343.041 1236.17 343.041 1226.38 338.699 1220.33Z" fill="#BE7C5E"/>
<path id="Vector_54" d="M322.742 1194.3L321.135 1192.07C316.793 1186.03 309.754 1186.03 305.412 1192.07L293.905 1208.08C289.564 1214.13 289.564 1223.92 293.905 1229.96L295.512 1232.2C299.854 1238.24 306.893 1238.24 311.235 1232.2L322.742 1216.19C327.084 1210.14 327.084 1200.35 322.742 1194.3Z" fill="#BE7C5E"/>
<path id="Vector_55" d="M360.975 1237.55L359.368 1235.32C355.026 1229.27 347.987 1229.27 343.645 1235.32L329.664 1254.77C325.322 1260.82 325.322 1270.61 329.664 1276.66L331.271 1278.89C335.613 1284.94 342.652 1284.94 346.994 1278.89L360.975 1259.43C365.316 1253.39 365.316 1243.6 360.975 1237.55Z" fill="#BE7C5E"/>
<path id="Vector_56" d="M372.699 1261.53L371.577 1259.97C368.545 1255.75 363.629 1255.75 360.597 1259.97L351.773 1272.25C348.742 1276.47 348.742 1283.31 351.773 1287.53L352.895 1289.09C355.927 1293.31 360.843 1293.31 363.875 1289.09L372.699 1276.81C375.731 1272.59 375.731 1265.75 372.699 1261.53Z" fill="#BE7C5E"/>
<path id="Vector_57" d="M552.841 1208.31L508.286 1235.86L463.726 1084.28L503.335 1063.61L552.841 1208.31Z" fill="white"/>
<path id="Vector_58" d="M216.186 1173.86L260.741 1201.42L305.302 1049.83L265.692 1029.15L216.186 1173.86Z" fill="white"/>
<path id="Vector_59" d="M166.675 967.146L265.692 1029.15L201.334 1235.86L166.675 1215.19V967.146Z" fill="#333333"/>
<path id="Vector_60" d="M602.352 1001.6L503.335 1063.61L567.698 1270.31L602.352 1249.64V1001.6Z" fill="#4D8AF0"/>
<g id="undraw_social_distancing_2g0u 1">
<path id="Vector_61" d="M169.601 1754.69L99.5621 1795.87L100.371 1797.52L170.41 1756.35L169.601 1754.69Z" fill="#3F3D56"/>
<path id="Vector_62" d="M516.424 2006.46C537.161 2006.46 553.972 1968.79 553.972 1922.31C553.972 1875.83 537.161 1838.16 516.424 1838.16C495.687 1838.16 478.877 1875.83 478.877 1922.31C478.877 1968.79 495.687 2006.46 516.424 2006.46Z" fill="#E6E6E6"/>
<path id="Vector_63" d="M516.391 1925.94L516.614 1926.39L550.562 1906.43L549.796 1904.86L516.462 1924.46C518.307 1887.16 522.079 1862.13 522.155 1861.64L520.554 1861.34C520.471 1861.88 515.988 1891.61 514.397 1934.62L480.777 1914.86L480.011 1916.43L513.96 1936.39L514.365 1935.56C513.092 1971.06 513.805 2015.46 520.554 2059.93L522.156 2059.64C514.798 2011.15 514.636 1962.75 516.391 1925.94Z" fill="#3F3D56"/>
<path id="Vector_64" d="M706.676 2106.8C506.682 2037.26 325.333 2040.97 208.417 2056.32C81.754 2072.95 1.37974 2106.45 0.582988 2106.79L0 2105.12C0.799133 2104.78 81.3626 2071.21 208.224 2054.55C282.847 2044.76 358.139 2042.65 433.12 2048.23C526.202 2055.15 618.201 2074.24 707.166 2105.1L706.676 2106.8Z" fill="#3F3D56"/>
<path id="Vector_65" d="M257.077 2087.15C257.077 2087.15 257.637 2074.24 269.136 2075.74Z" fill="#3F3D56"/>
<path id="Vector_66" d="M253.828 2074.87C257.006 2074.87 259.582 2072.04 259.582 2068.54C259.582 2065.05 257.006 2062.22 253.828 2062.22C250.649 2062.22 248.073 2065.05 248.073 2068.54C248.073 2072.04 250.649 2074.87 253.828 2074.87Z" fill="#6C63FF"/>
<path id="Vector_67" d="M254.516 2079.19H252.891V2091.68H254.516V2079.19Z" fill="#3F3D56"/>
<path id="Vector_68" d="M466.629 2089.83C466.629 2089.83 467.19 2076.92 478.688 2078.42Z" fill="#3F3D56"/>
<path id="Vector_69" d="M463.38 2077.54C466.558 2077.54 469.135 2074.71 469.135 2071.22C469.135 2067.73 466.558 2064.9 463.38 2064.9C460.202 2064.9 457.625 2067.73 457.625 2071.22C457.625 2074.71 460.202 2077.54 463.38 2077.54Z" fill="#6C63FF"/>
<path id="Vector_70" d="M464.068 2081.86H462.443V2094.36H464.068V2081.86Z" fill="#3F3D56"/>
<path id="Vector_71" d="M121.436 2067.52C121.436 2067.52 121.997 2054.61 133.495 2056.11Z" fill="#3F3D56"/>
<path id="Vector_72" d="M118.187 2055.24C121.366 2055.24 123.942 2052.41 123.942 2048.92C123.942 2045.43 121.366 2042.6 118.187 2042.6C115.009 2042.6 112.432 2045.43 112.432 2048.92C112.432 2052.41 115.009 2055.24 118.187 2055.24Z" fill="#6C63FF"/>
<path id="Vector_73" d="M118.875 2059.56H117.251V2072.05H118.875V2059.56Z" fill="#3F3D56"/>
<path id="Vector_74" d="M209.968 2050.57C209.968 2050.57 210.529 2037.66 222.027 2039.16Z" fill="#3F3D56"/>
<path id="Vector_75" d="M206.719 2038.29C209.897 2038.29 212.474 2035.46 212.474 2031.97C212.474 2028.48 209.897 2025.65 206.719 2025.65C203.541 2025.65 200.964 2028.48 200.964 2031.97C200.964 2035.46 203.541 2038.29 206.719 2038.29Z" fill="#6C63FF"/>
<path id="Vector_76" d="M207.407 2042.61H205.783V2055.1H207.407V2042.61Z" fill="#3F3D56"/>
<path id="Vector_77" d="M431.703 2074.66C431.703 2074.66 432.264 2061.75 443.762 2063.25Z" fill="#3F3D56"/>
<path id="Vector_78" d="M428.455 2062.38C431.633 2062.38 434.209 2059.55 434.209 2056.05C434.209 2052.56 431.633 2049.73 428.455 2049.73C425.276 2049.73 422.7 2052.56 422.7 2056.05C422.7 2059.55 425.276 2062.38 428.455 2062.38Z" fill="#6C63FF"/>
<path id="Vector_79" d="M429.143 2066.7H427.518V2079.19H429.143V2066.7Z" fill="#3F3D56"/>
<path id="Vector_80" d="M681.462 2048.78L714.891 2103.23L683.767 2137.41L679.733 2128.55L686.649 2110.82C686.649 2110.82 685.497 2094.36 681.462 2089.93C677.427 2085.5 659.56 2058.91 659.56 2058.91L681.462 2048.78Z" fill="#FFB8B8"/>
<path id="Vector_81" d="M638.811 1872.78C638.811 1872.78 645.149 1883.8 631.893 1931.28C631.893 1931.28 693.727 2045.91 683.929 2053.51C674.13 2061.11 647.615 2077.92 640.699 2072.86C633.782 2067.79 583.479 1896.21 583.479 1896.21L638.811 1872.78Z" fill="#2F2E41"/>
<path id="Vector_82" d="M708.84 2093.41L718.926 2104.49C724.113 2110.19 727.572 2118.42 717.773 2125.39C707.975 2132.35 673.969 2158.31 662.442 2150.08C650.914 2141.85 676.275 2134.25 676.275 2134.25C676.275 2134.25 680.468 2117.17 682.694 2120.96C684.92 2124.75 684.92 2132.35 684.92 2132.35L708.84 2093.41Z" fill="#2F2E41"/>
<path id="Vector_83" d="M586.937 2078.54C586.937 2078.54 568.493 2115.89 568.493 2120.32C568.493 2124.75 569.646 2137.41 569.646 2137.41L534.487 2146.91L522.384 2140.58L526.418 2129.18C526.418 2129.18 548.32 2120.95 552.931 2105.13C557.542 2089.3 562.73 2072.84 562.73 2072.84L586.937 2078.54Z" fill="#FFB8B8"/>
<path id="Vector_84" d="M608.263 1706.91C621.632 1706.91 632.47 1695.01 632.47 1680.32C632.47 1665.64 621.632 1653.73 608.263 1653.73C594.893 1653.73 584.055 1665.64 584.055 1680.32C584.055 1695.01 594.893 1706.91 608.263 1706.91Z" fill="#FFB8B8"/>
<path id="Vector_85" d="M601.923 1703.11L613.48 1739.59L638.81 1727.17C638.81 1727.17 621.519 1698.05 621.519 1694.25L601.923 1703.11Z" fill="#FFB8B8"/>
<path id="Vector_86" d="M598.465 1832.9H629.012C629.012 1832.9 650.914 1869.62 638.234 1908.24C636.292 1914.15 634.365 1922.43 632.441 1932.23C628.016 1954.75 623.611 1985.26 619.096 2013.3C612.755 2052.68 606.198 2087.18 599.07 2087.81C584.661 2089.07 556.641 2088.86 556.641 2082.53C556.641 2076.2 575.41 1893.04 575.41 1893.04L579.444 1885.44L580.207 1852.35C580.327 1847.13 582.307 1842.17 585.72 1838.53C589.133 1834.89 593.709 1832.87 598.465 1832.9V1832.9Z" fill="#2F2E41"/>
<path id="Vector_87" d="M568.205 2120C568.205 2120 574.833 2132.35 573.104 2141.21C571.375 2150.08 568.493 2148.81 555.813 2150.08C543.133 2151.34 499.905 2151.34 499.905 2142.48C499.905 2133.62 533.627 2122.11 533.769 2125.64C533.911 2129.18 535.064 2136.15 531.606 2137.41C528.147 2138.68 531.317 2137.73 531.317 2137.73L568.205 2120Z" fill="#2F2E41"/>
<path id="Vector_88" d="M601.928 1911.92C601.928 1911.92 599.42 1956.89 582.698 1943.5C565.975 1930.11 589.214 1905.93 589.214 1905.93L601.928 1911.92Z" fill="white"/>
<path id="Vector_89" d="M635.304 1852.69C636.107 1853.09 636.995 1853.24 637.87 1853.12C638.746 1853.01 639.576 1852.64 640.273 1852.04C641.285 1851.17 641.958 1849.91 642.159 1848.51C644.576 1833.2 647.52 1790.76 649.216 1769.3C651.343 1742.37 640.716 1721.51 640.627 1721.39L634.364 1711.93C633.714 1710.94 632.778 1710.22 631.709 1709.89C630.64 1709.56 629.501 1709.64 628.478 1710.11C628.478 1710.11 608.926 1732.39 608.854 1733.25C608.548 1736.95 606.221 1745.13 594.092 1758.46C580.822 1773.03 580.748 1785.75 581.042 1789.31C581.061 1789.54 581.071 1789.77 581.071 1790.01C581.046 1791.6 581.243 1793.19 581.656 1794.72C587.214 1813.96 582.861 1837.01 575.871 1861.06C575.606 1862.15 575.656 1863.3 576.012 1864.36C576.369 1865.41 577.015 1866.32 577.862 1866.95C579.904 1868.48 577.455 1866.21 578.184 1867.19C583.001 1873.68 589.934 1864.64 597.864 1854.78C600.627 1851.34 603.758 1847.45 607.448 1843.4C612.522 1837.82 622.216 1850.54 626.723 1850.54C629.69 1850.58 632.614 1851.31 635.304 1852.69V1852.69Z" fill="#575A89"/>
<path id="Vector_90" d="M637.992 1731.21C637.992 1731.21 650.653 1742.93 643.46 1758.14C636.267 1773.36 637.223 1784.57 637.223 1784.57C637.223 1784.57 635.308 1889.07 612.832 1883.99L602.608 1914.99L584.143 1907.67L594.821 1880.33C594.821 1880.33 586.269 1879.74 588.768 1873.34C590.523 1868.85 599.979 1820.06 605.452 1791.42C607.771 1779.29 609.376 1770.77 609.376 1770.77C609.376 1770.77 616.65 1728.04 637.992 1731.21Z" fill="#575A89"/>
<path id="Vector_91" opacity="0.2" d="M640.647 1784.31L633.528 1835.61L637.369 1780.75L640.647 1784.31Z" fill="black"/>
<path id="Vector_92" d="M581.852 1668.54C581.852 1668.54 577.782 1633.75 610.988 1645.16C610.988 1645.16 634.705 1640.38 642.482 1672.97L650.357 1707.12L646.519 1704.83L644.73 1709.12L638.511 1710.85L635.849 1705.05L634.562 1712.1L583.622 1717.68C583.622 1717.68 606.437 1702.86 606.799 1676.29L602.453 1681.34L581.852 1668.54Z" fill="#2F2E41"/>
<path id="Vector_93" opacity="0.2" d="M619.734 2015.3L631.093 1932.16L621.854 2021.91L619.734 2015.3Z" fill="black"/>
<path id="Vector_94" d="M638.297 1659.57C645.371 1659.57 651.106 1653.27 651.106 1645.5C651.106 1637.73 645.371 1631.43 638.297 1631.43C631.223 1631.43 625.488 1637.73 625.488 1645.5C625.488 1653.27 631.223 1659.57 638.297 1659.57Z" fill="#2F2E41"/>
<path id="Vector_95" d="M625.099 1642.06C625.309 1638.49 626.751 1635.14 629.129 1632.7C631.508 1630.25 634.645 1628.9 637.902 1628.91C637.637 1628.87 637.375 1628.83 637.105 1628.81C635.426 1628.69 633.742 1628.93 632.149 1629.53C630.556 1630.12 629.086 1631.06 627.822 1632.28C626.558 1633.5 625.525 1634.98 624.783 1636.64C624.04 1638.3 623.602 1640.1 623.494 1641.94C623.386 1643.79 623.61 1645.64 624.153 1647.39C624.696 1649.14 625.548 1650.75 626.659 1652.14C627.771 1653.53 629.12 1654.66 630.63 1655.47C632.141 1656.29 633.782 1656.77 635.462 1656.89C635.731 1656.91 635.997 1656.9 636.263 1656.9C633.032 1656.45 630.079 1654.66 628.005 1651.91C625.931 1649.15 624.891 1645.63 625.099 1642.06V1642.06Z" fill="#2F2E41"/>
<path id="Vector_96" opacity="0.2" d="M601.744 1800.29L590.474 1866.64L605.081 1793.36L601.744 1800.29Z" fill="black"/>
<path id="Vector_97" d="M602.447 1699.48L595.878 1704.92C589.114 1701.19 584.04 1692.53 582.196 1684.28L589.354 1680.31C589.916 1688.73 595.359 1694.33 602.447 1699.48Z" fill="white"/>
<path id="Vector_98" d="M605.174 1681.51H588.808C588.664 1681.51 588.525 1681.45 588.423 1681.33C588.32 1681.22 588.263 1681.07 588.263 1680.91C588.263 1680.75 588.32 1680.6 588.423 1680.49C588.525 1680.37 588.664 1680.31 588.808 1680.31H605.174C605.319 1680.31 605.458 1680.37 605.56 1680.49C605.662 1680.6 605.72 1680.75 605.72 1680.91C605.72 1681.07 605.662 1681.22 605.56 1681.33C605.458 1681.45 605.319 1681.51 605.174 1681.51V1681.51Z" fill="white"/>
<path id="Vector_99" d="M601.901 1699.48C601.812 1699.48 601.724 1699.46 601.645 1699.42C601.567 1699.37 601.499 1699.3 601.449 1699.22C601.399 1699.14 601.368 1699.05 601.359 1698.95C601.349 1698.85 601.362 1698.75 601.395 1698.66L605.759 1686.68C605.786 1686.61 605.825 1686.54 605.875 1686.48C605.925 1686.43 605.985 1686.38 606.05 1686.35C606.116 1686.32 606.187 1686.3 606.259 1686.3C606.331 1686.3 606.402 1686.31 606.468 1686.34C606.535 1686.37 606.596 1686.42 606.647 1686.47C606.698 1686.53 606.739 1686.59 606.767 1686.66C606.795 1686.74 606.81 1686.81 606.811 1686.89C606.812 1686.97 606.798 1687.05 606.771 1687.12L602.407 1699.11C602.367 1699.22 602.297 1699.31 602.207 1699.38C602.117 1699.45 602.01 1699.48 601.901 1699.48V1699.48Z" fill="white"/>
<path id="Vector_100" d="M606.275 1688.59C608.486 1688.59 610.278 1685.83 610.278 1682.43C610.278 1679.03 608.486 1676.28 606.275 1676.28C604.065 1676.28 602.272 1679.03 602.272 1682.43C602.272 1685.83 604.065 1688.59 606.275 1688.59Z" fill="#FFB8B8"/>
<path id="Vector_101" d="M324.23 1700.98L366.86 1711.69L384.872 1674.38L348.42 1658.74L324.23 1700.98Z" fill="#2F2E41"/>
<path id="Vector_102" d="M346.88 1901.84C346.88 1901.84 333.176 1936.34 333.176 1946.37C333.176 1946.37 338.601 1973.65 336.888 1981.18L330.892 1995.29L318.331 1989.65L314.905 1952.02L315.476 1891.81L346.88 1901.84Z" fill="#FFB9B9"/>
<path id="Vector_103" d="M354.588 1695.51C354.588 1695.51 355.73 1716.2 353.446 1722.47C351.162 1728.75 362.01 1740.66 362.01 1740.66L379.14 1716.2C379.14 1716.2 367.72 1703.66 370.575 1689.86L354.588 1695.51Z" fill="#FFB9B9"/>
<path id="Vector_104" d="M318.902 1838.81C318.902 1838.81 302.344 1872.68 318.331 1870.17C334.318 1867.66 328.894 1837.87 328.894 1837.87" fill="#E6E6E6"/>
<path id="Vector_105" d="M328.894 1837.87L334.318 1778.61L334.033 1742.54L321.471 1745.05V1778.29L318.902 1838.81" fill="#FFB9B9"/>
<path id="Vector_106" d="M315.191 1985.26L339.742 1974.59L342.597 2027.9C342.597 2027.9 347.736 2044.21 346.023 2050.48C346.023 2050.48 347.165 2061.14 344.31 2061.77C341.455 2062.4 333.462 2063.65 332.891 2063.02C332.32 2062.4 332.32 2060.51 332.32 2060.51C332.32 2060.51 326.61 2064.9 326.039 2069.92C326.039 2069.92 302.058 2078.08 301.487 2070.55C300.916 2063.02 313.478 2056.75 313.478 2056.75L323.184 2040.45L315.191 1985.26Z" fill="#2F2E41"/>
<path id="Vector_107" d="M397.982 1901.84C397.982 1901.84 384.278 1936.34 384.278 1946.37C384.278 1946.37 389.703 1973.65 387.99 1981.18L381.995 1995.29L369.433 1989.65L366.007 1952.02L366.578 1891.81L397.982 1901.84Z" fill="#FFB9B9"/>
<path id="Vector_108" d="M367.149 1985.26L391.701 1974.59L394.556 2027.9C394.556 2027.9 399.695 2044.21 397.982 2050.48C397.982 2050.48 399.124 2061.14 396.269 2061.77C393.414 2062.4 385.42 2063.65 384.849 2063.02C384.278 2062.4 384.278 2060.51 384.278 2060.51C384.278 2060.51 378.569 2064.9 377.998 2069.92C377.998 2069.92 354.017 2078.08 353.446 2070.55C352.875 2063.02 365.436 2056.75 365.436 2056.75L375.143 2040.45L367.149 1985.26Z" fill="#2F2E41"/>
<path id="Vector_109" d="M378.573 1681.08C378.571 1686.02 376.911 1690.79 373.911 1694.47C370.911 1698.15 366.781 1700.48 362.312 1701.02C357.842 1701.57 353.348 1700.28 349.687 1697.41C346.027 1694.54 343.458 1690.29 342.473 1685.48C342.172 1684.04 342.022 1682.56 342.025 1681.08C342.029 1675.76 343.955 1670.66 347.382 1666.9C350.809 1663.14 355.455 1661.03 360.299 1661.03C365.143 1661.03 369.79 1663.14 373.216 1666.9C376.643 1670.66 378.569 1675.76 378.573 1681.08V1681.08Z" fill="#FFB9B9"/>
<path id="Vector_110" d="M362.581 1721.22L376.76 1713.13L383.137 1718.71C383.137 1718.71 398.553 1718.08 404.263 1725.61C409.972 1733.14 413.113 1752.26 413.113 1752.26C413.113 1752.26 394.271 1747.87 396.554 1765.43L393.129 1755.4L389.988 1763.87L351.733 1778.29L334.604 1746.31C334.604 1746.31 323.184 1742.54 319.187 1751.32C319.187 1751.32 320.044 1719.65 331.178 1718.71C338.666 1718.08 344.31 1718.08 344.31 1718.08L350.591 1716.83L354.613 1715.26L362.581 1721.22Z" fill="#575A89"/>
<path id="Vector_111" d="M386.848 1789.89C386.848 1789.89 416.824 1888.67 408.259 1902.47C408.259 1902.47 376.285 1920.03 312.336 1896.2L338.315 1785.5C354.273 1781.92 370.451 1783.38 386.848 1789.89Z" fill="#2F2E41"/>
<path id="Vector_112" d="M386.848 1789.89L395.284 1758.05C385.164 1745.96 393.899 1719.15 393.899 1719.15L381.688 1716.28C381.688 1716.28 369.433 1752.58 356.872 1748.19C344.31 1743.8 351.162 1715.58 351.162 1715.58L339.742 1716.83L334.604 1738.78L338.315 1785.5C353.793 1784.05 370.026 1785.74 386.848 1789.89Z" fill="#575A89"/>
<path id="Vector_113" d="M401.693 1837.87L405.69 1778.29L406.832 1742.54L394.271 1745.05V1778.29L391.701 1838.81" fill="#FFB9B9"/>
<path id="Vector_114" d="M391.701 1838.81C391.701 1838.81 375.143 1872.68 391.13 1870.17C407.117 1867.66 401.693 1837.87 401.693 1837.87" fill="white"/>
<path id="Vector_115" d="M413.113 1752.26C413.113 1752.26 411.083 1720.06 394.112 1720.17V1757.42C394.112 1757.42 406.832 1749.13 413.113 1752.26Z" fill="#575A89"/>
<path id="Vector_116" d="M366.142 1686.26C366.045 1686.26 365.951 1686.23 365.872 1686.17C365.793 1686.11 365.734 1686.02 365.702 1685.92C365.67 1685.82 365.667 1685.71 365.694 1685.61C365.72 1685.51 365.775 1685.42 365.851 1685.35L375.169 1677.16C375.217 1677.12 375.272 1677.09 375.331 1677.07C375.39 1677.05 375.451 1677.05 375.513 1677.05C375.574 1677.06 375.633 1677.08 375.687 1677.11C375.741 1677.14 375.788 1677.19 375.827 1677.24C375.865 1677.29 375.894 1677.35 375.911 1677.42C375.928 1677.48 375.933 1677.55 375.926 1677.62C375.919 1677.69 375.9 1677.75 375.87 1677.81C375.84 1677.87 375.8 1677.92 375.751 1677.96L366.433 1686.15C366.35 1686.22 366.248 1686.26 366.142 1686.26Z" fill="white"/>
<path id="Vector_117" d="M366.847 1698.55C366.642 1698.82 366.437 1699.1 366.223 1699.35C363.75 1700.59 361.059 1701.2 358.345 1701.14C355.63 1701.09 352.961 1700.37 350.531 1699.04C348.101 1697.71 345.971 1695.81 344.296 1693.46C342.621 1691.11 341.444 1688.38 340.848 1685.48L349.678 1683.69L366.847 1685.48C362.915 1690.74 363.39 1692.56 366.847 1698.55Z" fill="white"/>
<path id="Vector_118" d="M349.981 1652.99C349.981 1652.99 340.538 1654.94 338.354 1667.88C338.012 1670.06 337.95 1672.28 338.169 1674.48C338.387 1676.98 338.071 1682.23 333.148 1688.43C329.936 1692.44 326.943 1696.67 324.185 1701.07V1701.07L334.053 1703.96L338.462 1686C340.599 1677.29 343.892 1668.98 348.234 1661.33L348.325 1661.17C348.325 1661.17 351.602 1670.79 360.387 1672.1L357.678 1668.19C357.678 1668.19 367.947 1674.71 373.765 1676.7C374.429 1676.93 375.024 1677.35 375.485 1677.92C375.947 1678.49 376.258 1679.19 376.385 1679.94C376.512 1680.69 376.45 1681.47 376.206 1682.18C375.961 1682.9 375.544 1683.53 374.998 1684C374.957 1684.04 374.915 1684.07 374.872 1684.11C370.593 1687.68 361.863 1696.2 365.312 1704.44C368.761 1712.68 364.739 1714.18 364.739 1714.18L372.156 1711.08L375.55 1709.48L375.207 1712.24L391.778 1712.62C391.778 1712.62 396.256 1712.59 388.302 1699.46C388.302 1699.46 386.383 1694.54 387.958 1690.78C389.223 1687.93 389.852 1684.79 389.795 1681.63C389.294 1668.39 384.218 1641.46 349.981 1652.99Z" fill="#2F2E41"/>
<path id="Vector_119" d="M117.525 2030.03C117.525 2030.03 117.525 2115.2 99.7295 2137.54C99.7295 2137.54 95.9163 2148.71 94.6452 2152.89C93.9345 2155.28 93.0853 2157.61 92.103 2159.87V2165.46C92.103 2165.46 57.7839 2161.27 53.9706 2151.5L60.326 2143.12C60.326 2143.12 61.5971 2141.72 60.326 2137.54C59.0549 2133.35 62.8682 2133.35 62.8682 2133.35L71.7657 2111.01L70.4947 2018.86L76.8501 1891.81L131.507 1889.02L117.525 2030.03Z" fill="#2F2E41"/>
<path id="Vector_120" d="M89.5609 2157.08C89.5609 2157.08 98.4584 2186.4 89.5609 2187.8C80.6633 2189.19 3.12743 2190.59 4.39851 2179.42C5.66959 2168.25 31.0912 2169.65 31.0912 2169.65L57.7839 2151.5L89.5609 2157.08Z" fill="#2F2E41"/>
<path id="Vector_121" d="M168.368 1891.81C168.368 1891.81 170.91 1909.96 160.741 1929.51C150.573 1949.05 156.928 2014.67 156.928 2014.67L247.175 2101.24C247.175 2101.24 229.38 2134.74 223.024 2133.35C216.669 2131.95 116.254 2042.6 116.254 2042.6L76.8501 1897.4L168.368 1891.81Z" fill="#2F2E41"/>
<path id="Vector_122" d="M245.935 2097.54C245.935 2097.54 273.243 2104.98 269.554 2113.98C265.864 2122.98 225.429 2195.66 217.521 2188.5C209.612 2181.35 224.295 2158.51 224.295 2158.51L224.628 2124.03L245.935 2097.54Z" fill="#2F2E41"/>
<path id="Vector_123" d="M148.03 1632.13C148.041 1639.48 145.739 1646.62 141.514 1652.32C138.173 1656.87 133.763 1660.33 128.762 1662.32C123.76 1664.31 118.358 1664.76 113.139 1663.63C110.527 1663.07 107.998 1662.12 105.627 1660.79C101.863 1658.7 98.5533 1655.75 95.9263 1652.13C93.2994 1648.51 91.4171 1644.3 90.4088 1639.81C89.8407 1637.29 89.5554 1634.72 89.5593 1632.13C89.5593 1623.61 92.6395 1615.44 98.1222 1609.42C103.605 1603.4 111.041 1600.01 118.795 1600.01C126.549 1600.01 133.985 1603.4 139.468 1609.42C144.95 1615.44 148.03 1623.61 148.03 1632.13V1632.13Z" fill="#A0616A"/>
<path id="Vector_124" d="M141.798 1643.46L140.505 1684.78L115.906 1695.45C115.906 1695.45 113.494 1653.14 110.089 1650.8C106.683 1648.45 141.798 1643.46 141.798 1643.46Z" fill="#A0616A"/>
<path id="Vector_125" d="M109.898 1700.54C109.898 1700.54 144.217 1662.84 153.115 1664.24C162.012 1665.63 162.012 1669.82 162.012 1672.61C162.012 1675.41 159.47 1676.8 162.012 1678.2C164.555 1679.59 167.097 1678.2 167.097 1682.39C167.097 1686.58 189.976 1728.46 182.35 1774.53C174.723 1820.61 165.826 1842.95 169.639 1868.08C173.452 1893.21 170.91 1898.79 170.91 1898.79C170.91 1898.79 75.579 1907.17 74.3079 1897.4C73.0369 1887.62 78.1211 1893.21 71.7657 1886.23C65.4103 1879.25 67.9525 1879.25 67.9525 1875.06C67.9525 1870.87 95.9163 1700.54 109.898 1700.54Z" fill="#575A89"/>
<path id="Vector_126" d="M127.693 1890.42C127.693 1890.42 112.44 1930.9 101.001 1921.13C89.5609 1911.36 106.085 1877.85 106.085 1877.85L127.693 1890.42Z" fill="white"/>
<path id="Vector_127" d="M164.555 1703.33C164.555 1703.33 194.419 1707.08 183.3 1767.34C172.181 1827.59 128.964 1897.4 128.964 1897.4L99.7295 1882.04L137.862 1799.66L128.964 1748.01C128.964 1748.01 123.88 1699.14 164.555 1703.33Z" fill="#575A89"/>
<path id="Vector_128" opacity="0.2" d="M138.498 1800.36L96.5516 1877.15L100.365 1881.34L138.498 1800.36Z" fill="black"/>
<path id="Vector_129" opacity="0.2" d="M160.7 1836.15L127.058 1896.7H138.498L160.7 1836.15Z" fill="black"/>
<path id="Vector_130" opacity="0.2" d="M84.706 1946.18L83.0161 1946.89L116.465 2043.22L118.154 2042.51L84.706 1946.18Z" fill="black"/>
<path id="Vector_131" d="M110.078 1708.2C111.077 1708.2 111.887 1707.31 111.887 1706.22C111.887 1705.12 111.077 1704.23 110.078 1704.23C109.08 1704.23 108.27 1705.12 108.27 1706.22C108.27 1707.31 109.08 1708.2 110.078 1708.2Z" fill="#D0CDE1"/>
<path id="Vector_132" d="M94.7086 1761.83C94.9018 1761.83 95.0899 1761.76 95.2453 1761.63C95.4007 1761.51 95.5152 1761.33 95.5721 1761.13L110.942 1706.51C110.977 1706.39 110.99 1706.25 110.979 1706.12C110.968 1705.99 110.934 1705.87 110.879 1705.75C110.823 1705.64 110.748 1705.53 110.656 1705.45C110.565 1705.37 110.459 1705.3 110.346 1705.27C110.232 1705.23 110.113 1705.21 109.995 1705.23C109.876 1705.24 109.761 1705.28 109.656 1705.34C109.551 1705.4 109.458 1705.48 109.382 1705.58C109.307 1705.68 109.25 1705.8 109.215 1705.92L93.8452 1760.54C93.8036 1760.69 93.7943 1760.85 93.818 1761C93.8417 1761.15 93.8979 1761.3 93.9818 1761.42C94.0658 1761.55 94.1753 1761.65 94.3015 1761.72C94.4277 1761.79 94.5672 1761.83 94.7086 1761.83V1761.83Z" fill="#D0CDE1"/>
<path id="Vector_133" d="M112.933 1656.72L105.627 1664.36C98.1031 1660.2 90.8354 1648.99 88.7843 1639.81L98.37 1635.39C98.9958 1644.76 105.05 1650.99 112.933 1656.72Z" fill="white"/>
<path id="Vector_134" d="M114.755 1639.39C114.726 1639.39 114.697 1639.39 114.668 1639.39L97.6779 1636.72C97.599 1636.71 97.5231 1636.68 97.4545 1636.63C97.3859 1636.59 97.3259 1636.53 97.278 1636.46C97.2302 1636.39 97.1953 1636.31 97.1755 1636.23C97.1556 1636.14 97.1512 1636.05 97.1624 1635.97C97.1736 1635.88 97.2002 1635.8 97.2408 1635.72C97.2813 1635.65 97.335 1635.58 97.3987 1635.53C97.4624 1635.47 97.5349 1635.44 97.6121 1635.41C97.6893 1635.39 97.7697 1635.39 97.8486 1635.4L114.839 1638.07C114.991 1638.09 115.129 1638.18 115.226 1638.31C115.322 1638.44 115.37 1638.6 115.359 1638.77C115.349 1638.94 115.28 1639.1 115.168 1639.21C115.056 1639.33 114.908 1639.39 114.755 1639.39V1639.39Z" fill="white"/>
<path id="Vector_135" d="M112.326 1656.72C112.22 1656.72 112.116 1656.69 112.024 1656.63C111.932 1656.58 111.856 1656.49 111.802 1656.39C111.749 1656.29 111.72 1656.18 111.72 1656.06C111.719 1655.94 111.746 1655.83 111.798 1655.73L117.427 1644.72C117.466 1644.64 117.519 1644.58 117.581 1644.52C117.644 1644.47 117.716 1644.43 117.793 1644.4C117.869 1644.38 117.95 1644.37 118.029 1644.38C118.108 1644.39 118.185 1644.42 118.254 1644.46C118.324 1644.51 118.385 1644.57 118.434 1644.63C118.483 1644.7 118.52 1644.78 118.541 1644.87C118.563 1644.95 118.569 1645.04 118.559 1645.13C118.549 1645.21 118.524 1645.3 118.484 1645.37L112.855 1656.38C112.802 1656.49 112.726 1656.57 112.633 1656.63C112.54 1656.69 112.434 1656.72 112.326 1656.72V1656.72Z" fill="white"/>
<path id="Vector_136" d="M132.028 1651.42C129.661 1650.05 126.912 1649.76 124.35 1648.91C115.185 1645.85 109.045 1634.47 111.005 1624.17C111.368 1622.85 111.53 1621.48 111.487 1620.1C111.144 1617.05 108.303 1615.08 105.578 1614.38C102.854 1613.68 99.955 1613.78 97.351 1612.66C93.3302 1610.92 90.6595 1606.39 90.0805 1601.68C89.5015 1596.98 90.7718 1592.19 92.8378 1588.02L93.8219 1591.13C95.3228 1589.73 96.4369 1587.9 97.0375 1585.85C98.1559 1586.05 99.2074 1586.57 100.091 1587.35C100.975 1588.13 101.661 1589.15 102.085 1590.3C103.665 1591.33 103.892 1587.13 105.637 1586.51C106.368 1586.25 107.119 1586.74 107.815 1587.1C111.331 1588.9 115.416 1587.36 119.188 1586.36C125.719 1584.64 132.527 1584.63 139.061 1586.33C143.403 1587.47 147.7 1589.45 150.806 1592.97C153.358 1595.86 154.947 1599.6 156.301 1603.34C159.633 1612.55 161.834 1622.52 160.734 1632.36C159.818 1640.41 156.752 1647.98 151.923 1654.12C149.407 1657.3 141.199 1668.41 136.698 1666.51C131.043 1664.13 138.691 1655.29 132.028 1651.42Z" fill="#2F2E41"/>
</g>
<defs>
<linearGradient id="paint0_linear" x1="463.419" y1="1394.37" x2="239.249" y2="1018.59" gradientUnits="userSpaceOnUse">
<stop stop-color="#808080" stop-opacity="0.25"/>
<stop offset="0.54" stop-color="#808080" stop-opacity="0.12"/>
<stop offset="1" stop-color="#808080" stop-opacity="0.1"/>
</linearGradient>
<linearGradient id="paint1_linear" x1="71367.7" y1="-37113.9" x2="70119.6" y2="-39080" gradientUnits="userSpaceOnUse">
<stop stop-color="#808080" stop-opacity="0.25"/>
<stop offset="0.54" stop-color="#808080" stop-opacity="0.12"/>
<stop offset="1" stop-color="#808080" stop-opacity="0.1"/>
</linearGradient>
<linearGradient id="paint2_linear" x1="29003" y1="9926.62" x2="25041.1" y2="3685.85" gradientUnits="userSpaceOnUse">
<stop stop-color="#808080" stop-opacity="0.25"/>
<stop offset="0.54" stop-color="#808080" stop-opacity="0.12"/>
<stop offset="1" stop-color="#808080" stop-opacity="0.1"/>
</linearGradient>
<linearGradient id="paint3_linear" x1="13398.8" y1="6311.66" x2="12337.9" y2="4640.41" gradientUnits="userSpaceOnUse">
<stop stop-color="#808080" stop-opacity="0.25"/>
<stop offset="0.54" stop-color="#808080" stop-opacity="0.12"/>
<stop offset="1" stop-color="#808080" stop-opacity="0.1"/>
</linearGradient>
<linearGradient id="paint4_linear" x1="265779" y1="215104" x2="265779" y2="36507.2" gradientUnits="userSpaceOnUse">
<stop stop-color="#808080" stop-opacity="0.25"/>
<stop offset="0.54" stop-color="#808080" stop-opacity="0.12"/>
<stop offset="1" stop-color="#808080" stop-opacity="0.1"/>
</linearGradient>
</defs>
</svg>
